<svg viewBox="0 0 128 128" xmlns="http://www.w3.org/2000/svg">
    <g fill="currentColor">
        <path
            d="m45.27 52.16c-15.43-.57-18.21 27.19-1.88 27.28 16.33.08 17.63-26.69 1.88-27.28zm-1.8 23.85c-8.08-.16-5.88-14.13 4.25-14.29 9.55-.15 3.84 14.45-4.25 14.29zm40.83-24.18c-18.86.08-14.21 28.75 0 28.42s15.52-28.49 0-28.42zm-.08 24.58c-8.41.08-7.83-16.34 2.29-15.76 8.57.49 6.12 15.68-2.29 15.76zm37.05-15.02c-2.83-13.83-9.94-32.17-14.26-36.67s-21.8-9.88-22.95-9.72c-1.14.16-7.19 7.02-7.19 7.02l-20.17.08s-7.38-6.85-9.55-6.78c-7.05.22-20.93 5.88-23.98 9.15s-9.58 17.09-13.39 28.96-5.66 33.43-5.77 36.26 3.81 10.34 5.23 11.65 24.72 11.76 27.66 11.65 4.03-1.96 5.44-5.01c1.42-3.05 3.16-6.21 2.5-7.51-.65-1.31-4.79-5.23-4.79-5.23s9.36 3.59 24.61 4.14c15.24.54 21.34-3.05 21.34-3.05s-.44 6.53-.11 7.29 3.7 5.23 5.34 6.75c1.63 1.52 3.48 2.07 5.88 1.2s24.39-12.3 26.02-14.37.98-21.99-1.85-35.82zm-2.18 30.59s-1.52 2.29-10.67 6.97-12.41 5.55-12.41 5.55l-6.86-7.62s7.08-3.38 7.4-4.03c.33-.65-3.16-6.21-3.81-5.99s-9.47 6.97-29.94 5.66-28.09-6.53-28.96-6.53-3.27 5.55-3.05 5.99 8.28 4.9 8.28 4.9l-3.48 6.86s-17.97-7.73-22.1-9.36-5.88-3.48-6.1-9.91c-.22-6.42 2.07-22.21 6.97-34.95s8.17-20.47 10.56-22.65c2.4-2.18 17.2-7.51 21.45-7.95 1.41-.14 8.6 7.4 9.47 7.73s21.78-.11 22.65-.76 5.66-7.4 6.21-7.51c.54-.11 16.01 5.01 19.49 8.38 3.48 3.38 11.43 19.93 13.72 36.26s1.2 28.96 1.2 28.96z" />
        <path
            d="m28.5 29.92c1.07-.21 2.07 1.85 2.07 2.61s-2.72 2.4-4.9 6.64c-2.18 4.25-1.85 6.53-2.83 7.08s-1.96.22-2.5-.65 1.63-5.88 3.16-9.26 3.92-6.21 5.01-6.42z" />
        <path d="m101.53 91.77c-.82-.82.24-3.67 1.06-3.51s7.43 4.82 7.43 5.63-.9 1.39-1.63 1.31-6.37-2.94-6.86-3.43z" />
        <path
            d="m102.84 83.6c-.82-.82.24-3.67 1.06-3.51s12.25 8.9 12.25 9.72-.9 1.39-1.63 1.31-11.19-7.02-11.68-7.51z" />
        <path d="m105.94 78.21c-.82-.82.24-3.67 1.06-3.51s9.06 5.72 9.06 6.53-.9 1.39-1.63 1.31-8-3.84-8.49-4.33z" />
        <path d="m108.48 72.82c-.82-.82.24-3.67 1.06-3.51s6.78 4.33 6.78 5.14-.9 1.39-1.63 1.31-5.72-2.45-6.21-2.94z" />
        <path d="m109.37 67.02c-.82-.82.24-3.67 1.06-3.51s4.41 2.86 4.41 3.67-.9 1.39-1.63 1.31-3.35-.98-3.84-1.47z" />
        <path d="m108.39 59.43c-.82-.82.24-3.67 1.06-3.51s5.14 3.43 5.14 4.25-.9 1.39-1.63 1.31-4.08-1.55-4.57-2.04z" />
    </g>
</svg>