<svg viewBox="0 0 128 128" xmlns="http://www.w3.org/2000/svg">
    <g fill="currentColor">
        <path
            d="m122.28 61.77c-1.12-31.35-27.68-56.91-57.91-57.75-46.38-1.27-58.86 40.16-58.7 58.55.16 18.4 14.72 61.58 57.75 61.42s59.99-30.87 58.87-62.22zm-74.46-52.46c-3.31 4-7.96 12.81-10.9 25.91-8.99-1.89-15.9-4.03-18.55-4.89 6.71-10.01 16.78-17.64 29.45-21.03zm-31.03 23.55c2.77 1.33 9.66 4.35 19.28 6.6-1.16 6.38-1.9 13.65-1.92 21.73-14.15-.13-21.76-.49-25.09-.7.21-9.97 2.92-19.48 7.73-27.63zm-7.7 31.19c3.57.09 13.18.32 25.08.47.21 9.14 1.5 17.53 3.22 24.8-8.64 1.67-14.04 3.86-16.76 5.18-6.66-8.72-11.02-19.24-11.54-30.46zm14.36 33.88c2.26-.79 7.44-2.45 15.11-4.02 2.59 9.41 5.7 16.47 7.56 20.26-8.44-3.42-16.34-9.08-22.67-16.24zm36.04 19.65c-1.39-.14-2.78-.37-4.17-.64-2.06-3.31-6.76-11.6-10.71-24.15 4.6-.76 9.84-1.43 15.66-1.88zm.89-30.5c-6.52.12-12.19.6-17.07 1.27-1.9-6.88-3.5-14.83-4.37-23.77 7.01.07 14.6.11 22.09.08zm.75-25.92c-8.72.08-16.17.1-22.48.07-.01-.14-.02-.27-.03-.41-.54-7.73-.06-14.57 1.03-20.58 6.45 1.27 13.91 2.11 22.04 1.91l-.56 19.02zm.67-22.64c-7.43-.32-14.75-1.33-21.23-2.56 4.05-16.6 12.6-25.79 15.01-28.13 2.31-.28 4.69-.43 7.14-.43l-.91 31.12zm54.97 21.72c-3.16.1-10.47.29-24.62.52-.27-8.08-.96-15.39-1.84-21.77 9.73-1.85 16.4-3.95 18.73-4.73 4.42 7.12 7.34 15.75 7.74 25.98zm-10.39-29.88c-2.55 1.05-8.57 3.36-16.56 5.27-1.69-10.9-3.86-18.73-5.1-22.71 7.85 3.77 15.69 9.51 21.66 17.43zm-39.84-22.79c3.22.32 6.79 1.06 10.51 2.27 2.22 3.42 7.09 12.17 9.65 26.49-6.21 1.31-13.37 2.29-20.89 2.28zm-.81 34.41c8.02-.44 15.28-1.36 21.49-2.43.9 6.16 1.35 13.24 1.03 21.27-6.37.1-13.97.2-22.97.3l.45-19.13zm-.53 22.66c7.74-.04 15.61-.06 22.85-.06-.61 9.13-2.04 17.19-3.82 24.1-5.53-.93-12.03-1.56-19.55-1.62l.53-22.42zm-1.25 53.17.64-27.17c6.91-.29 13.23.29 18.74 1.3-3.91 13.59-8.96 22.19-10.92 25.22-2.82.45-5.66.67-8.46.65zm17.04-2.75c1.82-3.65 5.26-11.33 7.86-21.92 7.65 1.92 13.19 4.43 15.83 5.77-6.4 7.77-14.77 13.17-23.7 16.16zm26-19.2c-2.7-1.47-8.4-4.11-17.35-6.13 1.57-7.31 2.65-15.8 2.59-25.15 11.39 0 20.69.04 24.57.06-.35 12.62-4.05 23.04-9.81 31.22z" />
        <path
            d="m35.42 17.07c.44-.38 1.6 1.92 1.6 2.32s-4.24 3.04-6 4.72-4.08 5.36-4.4 5.44-1.84-.72-2.24-.96 2.08-4.24 4.64-6.72 5.84-4.32 6.4-4.8z" />
        <path
            d="m17.67 41.14c.37-.32 2.4 1.52 2.56 1.84s-2.72 5.12-3.36 6.96-.08 5.76-.64 6-2.96.4-3.28.16 0-5.76.8-8.32 3.28-6.08 3.92-6.64z" />
        <path
            d="m66.61 79.21c-.25-1.01 1.76-2.56 2.48-2.48s6.8 7.28 6.8 8.24-1.28 1.76-1.76 1.76-7.36-6.88-7.52-7.52z" />
        <path
            d="m70.13 72.65c-.25-1.01 1.76-2.56 2.48-2.48s9.44 10.16 9.44 11.12-1.28 1.76-1.76 1.76-10-9.76-10.16-10.4z" />
        <path
            d="m76.29 71.05c-.25-1.01 1.76-2.56 2.48-2.48s4.56 4.96 4.56 5.92-1.28 1.76-1.76 1.76-5.12-4.56-5.28-5.2z" />
        <path d="m66.53 106.48c-.23-.51 1.44-2.08 2.08-2s4.24 4.08 4.24 4.72-.96 1.92-1.52 1.84-4.4-3.68-4.8-4.56z" />
        <path
            d="m67.09 99.21c-.12-.55 1.92-2.24 2.24-2.32s6.96 6.96 6.88 7.68-.88 1.52-1.44 1.6-7.44-5.84-7.68-6.96z" />
        <path d="m72.53 96.09c-.09-.48 1.68-2.08 2.4-2.16s3.92 4.8 3.92 5.2-.24 1.92-1.04 2.08-5.12-4.24-5.28-5.12z" />
        <path d="m88.93 102.4c-.38-.54 1.28-2.24 1.68-2.08s4.72 3.92 4.56 4.56-1.44 1.28-1.84 1.44-4-3.36-4.4-3.92z" />
        <path d="m91.01 98.33c-.23-.36 1.6-2.08 2.16-2.08s4.96 5.12 5.04 5.6-1.12 1.52-1.68 1.6-4.96-4.24-5.52-5.12z" />
        <path d="m94.45 83.93c-.38-.61 1.6-2.4 2.24-2.4s9.36 7.84 9.28 8.4-1.44 1.68-1.84 1.76-9.28-7.12-9.68-7.76z" />
        <path d="m97.97 78.73c-.48-.66 1.28-2.48 2.24-2.24s8.32 7.92 8.48 8.56-1.12 1.84-1.6 2-8.48-7.44-9.12-8.32z" />
        <path
            d="m103.33 75.05c-.61-.97 2.08-2.48 2.8-2.24s4.88 5.04 4.64 5.84-1.12 1.84-1.76 1.92-5.12-4.64-5.68-5.52z" />
        <path d="m107.96 71.77c-.18-.27 1.76-1.92 2.4-1.92s2.16 2.24 2.16 3.12-.32 2.4-.64 2.56-3.44-3.04-3.92-3.76z" />
        <path
            d="m95.33 52.18c-.59-.69 1.36-2.96 2.16-2.88s10.64 7.68 10.48 8.4-1.2 1.52-1.84 1.6-10.32-6.56-10.8-7.12z" />
        <path
            d="m98.13 45.86c-.41-.52.64-2.56 1.68-2.48s12.64 10.48 12.64 10.88-.72 1.6-1.44 1.68-12.24-9.28-12.88-10.08z" />
        <path d="m102.05 41.3c-.24-.77 2.08-2.32 2.8-2.4s5.76 5.68 5.92 6.4-.64 2-1.2 2.08-7.2-5.04-7.52-6.08z" />
    </g>
</svg>