<svg viewBox="0 0 128 128" xmlns="http://www.w3.org/2000/svg">
    <g fill="currentColor">
        <path
            d="m64.9 40.61c-21.45.32-24.46 18.21-23.35 24.46s5.94 17.42 22.48 17.5c16.55.08 21.93-12.43 20.98-23.91s-12.35-18.16-20.11-18.05zm-2.38 39.11c-9.5-.63-15.36-7.2-15.67-15.04-.32-7.84 6.02-20.58 24.3-19.32 2.37.16 10.37 5.78 10.37 16.78s-9.5 18.21-19 17.57zm1.19-47.97s-13.14-1.03-22.8 8.95c-9.51 9.82-9.18 22.01-7.92 27.39 1.27 5.38 10.53 30.08 34.75 30.24s30.08-21.3 30.8-30.87c.71-9.58-2.3-14.17-8.07-21.77-5.78-7.6-16.31-14.25-26.76-13.93zm19.87 54.94c-13.38 8.95-29.29 4.43-35.47-.63-6.17-5.07-11.87-14.57-12.75-22.56-.87-8 4.27-19.4 11.64-23.99 7.36-4.59 16.7-4.59 16.7-4.59 7.28.08 17.89 3.09 25.1 14.17 7.2 11.08 8.15 28.66-5.22 37.6zm39.27-57.55c-.32-9.34-12.67-23.12-24.7-24.07s-50.98-1.27-70.3-.95-21.85 23.43-22.01 30.24c0 0-.63 30.72-.63 41.8s-1.58 21.37 3.96 30.56c5.54 9.18 14.25 16.78 17.89 16.78s51.46.63 57.79.48c6.33-.16 22.96-.48 28.82-5.54 5.86-5.07 8.07-13.14 8.71-21.85.63-8.71.79-58.11.48-67.45zm-3.41 47.41c0 11.48-.71 22.8-4.59 29.45s-10.29 9.26-18.92 9.97-28.97.71-43.62.63-23.91.16-26.6-.24-10.13-4.27-14.17-12.59c-4.04-8.31-3.25-20.35-3.09-29.85s.48-39.58.48-39.58c.08-7.36 2.69-15.6 6.81-20.5 4.12-4.91 8.71-6.81 17.65-6.65 8.95.16 42.99.08 53.44.4s19 2.22 24.94 9.26c5.94 7.05 7.52 9.1 7.92 18.05s-.24 30.16-.24 41.64zm-25.65-50.82c-7.05 0-6.65 6.1-6.41 8.95s2.85 7.36 8.79 6.73 7.28-6.33 6.25-8.95c-1.03-2.61-3.72-6.73-8.63-6.73zm3.33 8.79c-1.9 2.06-5.38 1.82-6.25-1.11-.68-2.28.48-4.27 3.88-4.04 2.93.2 4.27 3.09 2.38 5.15zm-9.66-22.48c-9.42-.32-53.73.17-58.5.32-10.45.32-13.7 12.03-14.8 19.95-1.11 7.92-1.58 31.03-1.5 43.62s.63 20.35 4.04 25.65c3.4 5.3 6.89 7.76 22.8 8.55s32.14 1.5 43.38 1.58 17.73-.71 24.3-7.36 5.78-13.77 5.86-25.89c.08-12.11.4-34.83-.87-48.69-1.27-13.85-15.28-17.42-24.7-17.73zm21.85 82.8c-1.11 5.38-5.54 9.18-9.66 11.16s-10.85 2.06-22.72 1.98-35.15-.87-41.96-1.03-10.92-1.27-13.54-7.2c-2.61-5.94-3.01-17.89-3.01-33.65s0-29.29 2.53-35.55c2.53-6.25 6.02-10.21 11-11.4 4.15-.99 47.02-.4 57.95.08 10.92.48 12.98 1.35 15.44 4.59 2.45 3.25 4.83 8.07 4.83 20.03s.24 45.6-.87 50.98z" />
        <path
            d="m46.53 42.28c.98-.46 1.9 1.35 1.82 2.06s-3.88 2.85-6.1 6.97-1.9 7.05-2.37 7.44-2.3.32-2.53.16 0-4.99 2.37-9.02c2.37-4.04 5.62-7.05 6.81-7.6z" />
        <path d="m68.66 86.77c-.41-.91 1.03-2.1 1.74-2.02s3.4 3.56 3.32 4-1.39 1.07-2.06 1.03-2.81-2.57-3.01-3.01z" />
        <path
            d="m72.93 83.92c-.41-.91 1.03-2.1 1.74-2.02s4.47 4.87 4.39 5.3-1.39 1.07-2.06 1.03-3.88-3.88-4.08-4.31z" />
        <path
            d="m77.36 81.58c-.41-.91 1.03-2.1 1.74-2.02s3.64 4.16 3.56 4.59-1.39 1.07-2.06 1.03-3.05-3.17-3.25-3.6z" />
        <path
            d="m81.24 77.98c-.41-.91 1.03-2.1 1.74-2.02s3.64 4.16 3.56 4.59-1.39 1.07-2.06 1.03-3.05-3.17-3.25-3.6z" />
        <path
            d="m84.37 75.41c-.41-.91 1.03-2.1 1.74-2.02s3.29 3.44 3.21 3.88-1.03 1.23-1.7 1.19-3.05-2.61-3.25-3.05z" />
        <path d="m86.67 71.73c-.41-.91 1.03-2.1 1.74-2.02s2.37 2.34 2.3 2.77-1.03 1.23-1.7 1.19-2.14-1.5-2.34-1.94z" />
        <path
            d="m87.89 66.94c-.41-.91 1.03-2.1 1.74-2.02s2.35 2.33 2.3 2.77c-.08.67-.08 2.02-.75 1.98s-3.09-2.3-3.29-2.73z" />
        <path
            d="m21.14 11.3c.48-.21 1.74 1.58 1.48 1.9s-3.43 1.64-5.7 5.17c-2.27 3.54-2.53 6.81-2.8 7.18s-2.27.16-2.53-.16 1.74-6.17 3.64-8.71 4.59-4.8 5.91-5.38z" />
        <path
            d="m101.79 110.57c-.29-.58.95-1.37 1.42-1.27s2.32 2.22 2.27 2.64-1.11 1.16-1.64 1.16-1.9-2.22-2.06-2.53z" />
        <path
            d="m105.27 108.35c-.29-.58.95-1.37 1.42-1.27s2.32 2.22 2.27 2.64-1.11 1.16-1.64 1.16-1.9-2.22-2.06-2.53z" />
        <path
            d="m108.28 106.14c-.29-.58 1.16-2.01 1.64-1.9s2.64 2.69 2.59 3.11-1.11 1.16-1.64 1.16-2.43-2.06-2.59-2.37z" />
        <path
            d="m110.39 102.92c-.29-.58 1.16-2.01 1.64-1.9s2.64 2.69 2.59 3.11-1.11 1.16-1.64 1.16-2.43-2.06-2.59-2.37z" />
        <path
            d="m112.03 99.06c-.29-.58 1.16-2.01 1.64-1.9s2.64 2.69 2.59 3.11-1.11 1.16-1.64 1.16-2.43-2.06-2.59-2.37z" />
        <path
            d="m113.13 95.05c-.29-.58 1.16-2.01 1.64-1.9s2.64 2.69 2.59 3.11-1.11 1.16-1.64 1.16-2.43-2.06-2.59-2.37z" />
        <path
            d="m113.4 90.04c-.29-.58 1.16-2.01 1.64-1.9s2.64 2.69 2.59 3.11-1.11 1.16-1.64 1.16-2.43-2.06-2.59-2.37z" />
        <path
            d="m114.03 85.18c-.29-.58 1.16-2.01 1.64-1.9s2.64 2.69 2.59 3.11-1.11 1.16-1.64 1.16-2.43-2.06-2.59-2.37z" />
        <path
            d="m114.19 79.8c-.29-.58 1.16-2.01 1.64-1.9s2.64 2.69 2.59 3.11-1.11 1.16-1.64 1.16-2.43-2.06-2.59-2.37z" />
    </g>
</svg>