<svg viewBox="0 0 128 128" xmlns="http://www.w3.org/2000/svg">
    <g fill="currentColor">
        <path
            d="m40.59 46.81c-1.2-.25-14.78-.7-16.97-.62s-2.72 1.94-2.81 3.34v53.92c0 3.06.91 4.54 2.15 4.62s12.55.41 15.36.08 3.88-2.06 3.88-3.14.17-12.14.41-22.79c.25-10.65.25-30.06.33-32.45s-1.16-2.72-2.35-2.97zm-2.6 57.63-11.39-.33.83-52.68 11.81.08-1.24 52.93zm85.46-86.78c-.11-5.94-5.83-11.56-12.11-12s-85.43-.88-94.35-.77-10.9 6.16-10.9 11.01c0 0-.44 15.96-.77 31.82-.33 15.85-1.1 44.92-.66 57.8s8.59 17.28 16.51 17.5c7.93.22 73.65.11 87.41-.33s14.2-6.94 14.42-11.34.55-87.74.44-93.69zm-5.86 63.99c-.08 14.86 0 23.61-.33 26.09s-2.23 7.43-8.09 8.26-26.17.74-45.58.74-41.2.25-45.99-.5c-4.79-.74-9.08-3.3-9.33-13.79s.25-40.87.66-52.43.33-31.62.33-31.62c0-4.46 1.4-9.66 8.34-9.74s70.02 0 78.61 0 12.63-.17 14.86.08 7.43 4.29 7.35 8.17-.74 49.87-.83 64.73zm-33.36-36.49c-10.73-.5-14.86 4.62-14.86 4.62.41-2.64-.66-4.13-2.06-4.13s-11.97-.33-14.37-.25-3.47 2.06-3.47 4.62c0 0-1.24 50.37-.91 53.17.33 2.81 1.32 3.3 3.22 3.47s13.79.33 15.44 0 1.9-1.82 1.9-3.3-.41-22.62.08-29.31c.5-6.69 3.8-9.5 9.25-9.41 5.45.08 5.95 2.72 6.94 8.59.99 5.86.66 22.62.66 27s.5 5.7 2.39 6.03c1.9.33 10.4.83 13.79.25s3.63-1.57 4.13-3.63 1.4-19.65-.08-35.01c-1.49-15.36-11.31-22.21-22.05-22.71zm18.91 57.63-12.3-.08s0-22.29-.25-29.15c-.25-6.85-3.05-12.39-12.22-12.39-7.18 0-12.05 4.29-12.3 12.3s-.17 29.23-.17 29.23h-10.73l.41-51.19 10.07.08s.08 3.22.5 3.72c.41.5 2.81.91 3.47.58s5.7-4.62 13.87-4.38c8.17.25 19.57 7.51 19.82 20.56s-.17 30.72-.17 30.72zm-71.59-83.97c-7.43-.17-12.05 6.44-12.47 13.13-.41 6.69 4.62 13.05 12.8 12.72 8.17-.33 12.05-7.1 12.3-12.55s-2.81-13.08-12.63-13.29zm8.83 13.21c-.14 3.04-2.31 6.83-6.87 7.01-4.57.18-7.38-3.37-7.15-7.1.23-3.74 2.81-7.43 6.97-7.34 5.49.12 7.2 4.38 7.06 7.43z" />
        <path
            d="m18.42 11.96c.93-.11 2.31 1.98 2.15 2.31s-2.89 1.65-4.05 3.96-.99 5.45-1.57 5.78-2.97-.5-3.22-1.9.41-4.38 1.57-6.52c1.16-2.15 3.72-3.47 5.12-3.63z" />
        <path d="m12.73 60.6c.07-.34 3.26-.04 3.39.21s.08 18.91-.21 19.11-2.81.25-3.18-.12-.08-18.78 0-19.2z" />
        <path d="m73.08 109.97c-.5-.34 1.93-2.92 2.37-2.92s7.87 5.78 7.87 6.22-1.21 1.05-1.54 1.1-8.37-4.18-8.7-4.4z" />
        <path d="m75.95 104.36c-.51-.46 1.38-2.7 1.87-2.64s8.37 6 8.37 6.44-1.05 1.87-1.43 1.98-8.26-5.28-8.81-5.78z" />
        <path d="m77.1 99.18c-.25-.28 1.32-2.81 1.6-2.81s4.68 3.41 4.9 3.8-.72 1.93-1.16 2.04-4.9-2.53-5.34-3.03z" />
        <path d="m79.03 93.68c-.34-.38 1.54-2.81 1.82-2.81s2.59 2.26 2.64 2.64 0 2.26-.5 2.48-3.47-1.76-3.96-2.31z" />
        <path
            d="m100.44 43.48c-.3-.3 1.38-2.92 1.98-2.92s10.51 7.27 10.62 7.6-.5 2.42-.99 2.59-10.68-6.33-11.61-7.27z" />
        <path
            d="m103.08 38.41c-.25-.4 1.27-2.75 1.71-2.81s8.81 6.22 8.97 6.77-.33 2.31-.72 2.48-9.19-5.17-9.96-6.44z" />
        <path
            d="m104.84 32.69c-.27-.27 1.16-2.86 1.54-2.92s7.76 4.79 7.82 5.34-.06 2.75-.44 2.75-8.2-4.46-8.92-5.17z" />
        <path d="m106.28 25.7c-.34-.28 1.21-2.81 1.71-2.81s6.22 3.69 6.22 4.4-.06 1.54-.33 1.76-6.99-2.86-7.6-3.36z" />
        <path d="m107.82 19.64c-.33-.47.94-3.14 1.32-3.14s5.01 3.8 5.12 4.18.28 2.26-.11 2.42-5.67-2.53-6.33-3.47z" />
        <path d="m108.81 14.36s.66-2.92 1.38-2.81 4.68 4.02 4.84 4.51.17 1.71-.33 1.98-5.72-3.36-5.89-3.69z" />
    </g>
</svg>