<svg viewBox="0 0 128 128" xmlns="http://www.w3.org/2000/svg">
    <g fill="currentColor">
        <path
            d="m61.45 17.73c-14.22-.63-19.41 13.99-19.33 21.85s6.99 20.83 18.55 21.22c11.55.39 20.51-7.94 20.75-20.28s-8.73-22.29-19.96-22.79zm14.31 30.26c-7.78 15.32-24.52 9.35-27.74-.94 0 0-1.89-9.43 6.13-16.35s14.46-5.19 14.46-5.19 14.93 7.15 7.15 22.48zm25.38-2.6c-1.41-27.51-19.99-42.44-39.92-41.34-19.8 1.1-34.11 13.99-34.42 42.28s23.1 78.74 38.67 77.64c15.56-1.1 37.09-51.08 35.68-78.59zm-36.46 70.42c-12.89 1.57-33.95-44.48-34.74-66.33s9.43-41.34 30.96-42.12c17.13-.63 34.11 13.83 33.95 39.45s-17.29 67.43-30.18 69z" />
        <path
            d="m43.06 19.46c.57-.35 2.75 1.57 2.44 2.04s-4.01 3.85-5.66 7.15-2.12 8.02-2.28 8.25-2.04.24-2.99-.63 1.02-7.23 2.83-10.06 5.03-6.37 5.66-6.76z" />
        <path
            d="m58 101.43c-.06-.32 2.28-1.65 2.67-1.65s5.97 9.27 5.66 10.22-2.2 1.49-2.59 1.41-5.58-9.19-5.74-9.98z" />
        <path
            d="m63.58 98.28c-.07-.45 2.83-1.02 3.3-.94s4.56 8.33 4.24 8.88-1.73 1.18-2.12 1.26-5.27-8.17-5.42-9.19z" />
        <path
            d="m68.45 94.43c-.05-.24 2.2-2.2 2.59-2.04s4.17 7.39 4.01 7.78-1.41 1.57-1.65 1.57-4.79-6.52-4.95-7.31z" />
        <path d="m72.77 89.72c0-.35 1.89-1.81 2.28-1.81s2.99 5.03 3.06 5.42-.63 1.49-1.18 1.65-4.17-4.4-4.17-5.27z" />
        <path
            d="m75.29 80.37c-.25-.58 2.2-1.96 2.91-1.81.71.16 3.77 6.68 3.69 7.15s-.79 2.04-1.41 2.12-4.48-5.82-5.19-7.47z" />
        <path
            d="m79.06 76.59c-.12-.62 1.41-2.2 2.12-1.96s3.62 4.24 3.38 4.95-1.26 1.73-1.57 1.73-3.69-3.54-3.93-4.72z" />
        <path
            d="m81.81 71.8c-.14-.38 1.41-1.73 1.89-1.81s3.22 2.75 2.99 3.38-.79 1.26-1.41 1.41-3.14-2.12-3.46-2.99z" />
        <path d="m84.79 66.14c-.34-.44.79-1.89 1.34-1.89s3.06 2.04 3.22 2.67-1.02 2.04-1.57 2.12-2.44-2.2-2.99-2.91z" />
        <path d="m86.37 60.48c-.32-.97.63-2.12 1.26-2.12s1.73 1.1 1.02 2.04-2.04.79-2.28.08z" />
    </g>
</svg>