<?xml version="1.0" encoding="UTF-8" standalone="no"?>
<svg width="100%" height="100%" viewBox="0 0 426 308" version="1.1" xmlns="http://www.w3.org/2000/svg" xmlns:xlink="http://www.w3.org/1999/xlink" xml:space="preserve" xmlns:serif="http://www.serif.com/" style="fill-rule:evenodd;clip-rule:evenodd;stroke-linejoin:round;stroke-miterlimit:2;">
    <g transform="matrix(1,0,0,1,-3351.229208,-37.003197)" fill="currentColor">
        <g transform="matrix(0.647047,0,0,0.647047,3240.584182,-108.582363)">
            <path d="M828,423C828,507.5 759.5,576 675,576C599.71,576 537.13,521.62 524.38,450L474.62,450C461.87,521.62 399.29,576 324,576C239.5,576 171,507.5 171,423C171,350.9 220.87,290.45 288,274.26L288,321.15C246.05,335.97 216,375.98 216,423C216,482.65 264.35,531 324,531C383.65,531 432,482.65 432,423C432,375.98 401.95,335.97 360,321.15L360,274.26C418.55,288.38 463.97,336.17 474.62,396L524.38,396C535.03,336.17 580.45,288.38 639,274.26L639,321.15C597.05,335.97 567,375.98 567,423C567,482.65 615.35,531 675,531C734.65,531 783,482.65 783,423C783,375.98 752.95,335.97 711,321.15L711,274.26C778.13,290.45 828,350.9 828,423Z" style="fill-rule:nonzero;"/>
            <path d="M360,423C360,442.88 343.88,459 324,459C304.12,459 288,442.88 288,423C288,419.31 288.56,415.75 289.59,412.4C291.85,413.43 294.36,414 297,414C306.94,414 315,405.94 315,396C315,393.36 314.43,390.85 313.4,388.59C316.75,387.56 320.31,387 324,387C343.88,387 360,403.12 360,423Z" style="fill-rule:nonzero;"/>
            <path d="M711,423C711,442.88 694.88,459 675,459C655.12,459 639,442.88 639,423C639,403.12 655.12,387 675,387C678.69,387 682.25,387.56 685.6,388.59C684.57,390.85 684,393.36 684,396C684,405.94 692.06,414 702,414C704.64,414 707.15,413.43 709.41,412.4C710.44,415.75 711,419.31 711,423Z" style="fill-rule:nonzero;"/>
            <rect x="297" y="225" width="54" height="126" />
            <rect x="648" y="225" width="54" height="126" />
            <path d="M193.46,641.8L171.06,641.8L171.06,628.6L232.06,628.6L232.06,641.8L209.66,641.8L209.66,698.6L193.46,698.6L193.46,641.8Z" style="fill-rule:nonzero;"/>
            <path d="M294.96,685.6L294.96,698.6L240.76,698.6L240.76,628.6L293.66,628.6L293.66,641.6L256.86,641.6L256.86,656.8L289.36,656.8L289.36,669.4L256.86,669.4L256.86,685.6L294.96,685.6Z" style="fill-rule:nonzero;"/>
            <path d="M303.25,663.6C303.25,642.5 319.45,627.4 341.25,627.4C353.35,627.4 363.45,631.8 370.05,639.8L359.65,649.4C354.95,644 349.05,641.2 342.05,641.2C328.95,641.2 319.65,650.4 319.65,663.6C319.65,676.8 328.95,686 342.05,686C349.05,686 354.95,683.2 359.65,677.7L370.05,687.3C363.45,695.4 353.35,699.8 341.15,699.8C319.45,699.8 303.25,684.7 303.25,663.6Z" style="fill-rule:nonzero;"/>
            <path d="M445.16,628.6L445.16,698.6L428.96,698.6L428.96,669.9L397.16,669.9L397.16,698.6L380.96,698.6L380.96,628.6L397.16,628.6L397.16,656.2L428.96,656.2L428.96,628.6L445.16,628.6Z" style="fill-rule:nonzero;"/>
            <path d="M537.35,662.5L552.15,662.5L552.15,690.9C544.45,696.7 533.85,699.8 523.85,699.8C501.85,699.8 485.65,684.7 485.65,663.6C485.65,642.5 501.85,627.4 524.15,627.4C536.45,627.4 546.65,631.6 553.45,639.5L543.05,649.1C537.95,643.7 532.05,641.2 524.95,641.2C511.35,641.2 502.05,650.3 502.05,663.6C502.05,676.9 511.35,686 524.75,686C529.15,686 533.25,685.2 537.35,683L537.35,662.5Z" style="fill-rule:nonzero;"/>
            <path d="M621.35,685.6L621.35,698.6L567.15,698.6L567.15,628.6L620.05,628.6L620.05,641.6L583.25,641.6L583.25,656.8L615.75,656.8L615.75,669.4L583.25,669.4L583.25,685.6L621.35,685.6Z" style="fill-rule:nonzero;"/>
            <path d="M688.45,685.6L688.45,698.6L634.25,698.6L634.25,628.6L687.15,628.6L687.15,641.6L650.35,641.6L650.35,656.8L682.85,656.8L682.85,669.4L650.35,669.4L650.35,685.6L688.45,685.6Z" style="fill-rule:nonzero;"/>
            <path d="M726.85,671.1L717.45,680.9L717.45,698.6L701.35,698.6L701.35,628.6L717.45,628.6L717.45,661.3L748.45,628.6L766.45,628.6L737.45,659.8L768.15,698.6L749.25,698.6L726.85,671.1Z" style="fill-rule:nonzero;"/>
            <path d="M768.35,691.7L773.85,679.5C779.75,683.8 788.55,686.8 796.95,686.8C806.55,686.8 810.45,683.6 810.45,679.3C810.45,666.2 769.75,675.2 769.75,649.2C769.75,637.3 779.35,627.4 799.25,627.4C808.05,627.4 817.05,629.5 823.55,633.6L818.55,645.9C812.05,642.2 805.35,640.4 799.15,640.4C789.55,640.4 785.85,644 785.85,648.4C785.85,661.3 826.55,652.4 826.55,678.1C826.55,689.8 816.85,699.8 796.85,699.8C785.75,699.8 774.55,696.5 768.35,691.7Z" style="fill-rule:nonzero;"/>
        </g>
    </g>
</svg>
